<?xml version="1.0" standalone="no"?>
<!DOCTYPE svg PUBLIC "-//W3C//DTD SVG 20010904//EN"
 "http://www.w3.org/TR/2001/REC-SVG-20010904/DTD/svg10.dtd">
<svg version="1.0" xmlns="http://www.w3.org/2000/svg"
 width="512.000000pt" height="512.000000pt" viewBox="0 0 512.000000 512.000000"
 preserveAspectRatio="xMidYMid meet">

<g transform="translate(0.000000,512.000000) scale(0.100000,-0.100000)"
fill="#fff" stroke="none">

<!-- <path fill="#fff" d="M32 64c17.673 0 32-14.327 32-32s-14.327-32-32-32-32 14.327-32 32 14.327 
32 32 32zM32 6c14.359 0 26 11.641 26 26s-11.641 26-26 26-26-11.641-26-26 11.641-26 26-26zM44 
42l-14-10   "></path> -->
<path fill="#fff" d="M32 64c17.673 0 32-14.327 32-32s-14.327-32-32-32-32 14.327-32 32 14.327 
32 32 32zM32 6c14.359 0 26 11.641 26 26s-11.641 26-26 26-26-11.641-26-26 11.641-26 26-26zM44 
42l-14-10"></path>

<path d="M2365 5114 c-108 -9 -326 -46 -435 -73 -172 -44 -335 -105 -509 -192
-508 -252 -906 -652 -1157 -1164 -126 -258 -198 -490 -241 -780 -26 -180 -24
-533 5 -720 67 -429 234 -827 493 -1172 90 -119 283 -320 409 -425 276 -231
646 -419 1000 -509 222 -56 370 -73 630 -73 250 0 357 11 575 60 268 60 607
206 840 362 530 355 911 893 1065 1504 58 228 73 357 74 623 0 256 -10 359
-60 580 -79 353 -279 762 -509 1040 -240 291 -525 516 -860 681 -253 123 -486
196 -765 239 -102 15 -452 27 -555 19z m390 -265 c456 -39 898 -218 1250 -504
462 -376 754 -902 836 -1505 19 -139 17 -450 -5 -590 -62 -409 -202 -751 -439
-1070 -91 -123 -335 -367 -457 -456 -330 -244 -658 -378 -1095 -445 -104 -17
-466 -17 -570 0 -437 67 -765 201 -1095 445 -122 90 -366 334 -456 456 -244
330 -389 687 -445 1100 -17 122 -17 449 0 565 100 692 456 1261 1026 1640 411
273 949 408 1450 364z"/>


<path d="M2538 3867 c-35 -24 -272 -200 -527 -390 l-464 -347 -259 0 -258 0 0
-570 0 -570 254 0 254 0 504 -374 c277 -205 518 -381 536 -390 47 -24 94 -18
103 14 12 42 10 2629 -1 2651 -18 33 -71 25 -142 -24z"/>
<path d="M3468 3793 c-37 -6 -86 -56 -94 -98 -10 -52 11 -95 85 -178 438 -491
490 -1213 127 -1756 -36 -53 -96 -131 -135 -175 -97 -107 -106 -173 -35 -236
29 -25 43 -30 86 -30 51 0 54 1 118 68 376 385 545 974 434 1512 -61 294 -214
592 -417 809 -71 75 -106 93 -169 84z"/>
<path d="M3113 3380 c-59 -14 -93 -60 -93 -129 0 -30 8 -50 35 -83 132 -163
185 -255 221 -388 29 -102 27 -349 -4 -453 -37 -128 -99 -237 -208 -366 -45
-52 -46 -56 -42 -108 6 -64 33 -98 90 -114 57 -15 97 2 160 69 163 171 266
410 286 660 17 214 -21 410 -116 596 -74 144 -213 316 -256 316 -8 0 -20 2
-28 4 -7 2 -28 0 -45 -4z"/>

</g>


</svg>
